# xmcd database file
#
# Track frame offsets:
# 150
# 12912
# 31034
# 48830
# 63525
# 82634
# 101482
# 119586
# 139614
# 150979
# 167158
# 181980
# 198553
# 220874
# 242105
# 262509
#
# Disc length: 3978 seconds
#
# Revision: 3
# Processed by: cddbd v1.5.1PL0 Copyright (c) Steve Scherf et al.
# Submitted via: CD-Runner 2004.04
#
DISCID=c40f8810
DTITLE=Cris Cuddy - Keep the Change
DYEAR=2003
DGENRE=Country
TTITLE0=Keep the Change
TTITLE1=Help Me Forget to Remember
TTITLE2=Why Goodbye?
TTITLE3=Rock'n'Roll History
TTITLE4=Wild Eyes
TTITLE5=No Love No Nothin'
TTITLE6=Kissin' The Night Away
TTITLE7=Tell Me
TTITLE8=O Marsha
TTITLE9=Paramount Cafe
TTITLE10=A Bottle of Perfume
TTITLE11=Bandolero
TTITLE12=Tom Cat
TTITLE13=Friday Night
TTITLE14=Is It Raining Today?
TTITLE15=Friday Night (Long Version)
EXTD=
EXTT0=with Prairie Oyster
EXTT1=with Albert Lee
EXTT2=with Joan Besen
EXTT3=with Albert Lee, Gene Taylor
EXTT4=
EXTT5=
EXTT6=
EXTT7=Jagger/Richards
EXTT8=with Gene Taylor
EXTT9=
EXTT10=
EXTT11=
EXTT12=with Gene Taylor, Doug McClement
EXTT13=
EXTT14=
EXTT15=
PLAYORDER=
